<?xml version="1.0" encoding="UTF-8" standalone="no"?>
<!-- Created with Inkscape (http://www.inkscape.org/) -->

<svg
   version="1.1"
   id="svg1"
   width="2760"
   height="1504"
   viewBox="0 0 2760 1504"
   sodipodi:docname="Logomark_final.svg"
   inkscape:version="1.4.2 (f4327f4, 2025-05-13)"
   xmlns:inkscape="http://www.inkscape.org/namespaces/inkscape"
   xmlns:sodipodi="http://sodipodi.sourceforge.net/DTD/sodipodi-0.dtd"
   xmlns="http://www.w3.org/2000/svg"
   xmlns:svg="http://www.w3.org/2000/svg">
  <defs
     id="defs1" />
  <sodipodi:namedview
     id="namedview1"
     pagecolor="#505050"
     bordercolor="#eeeeee"
     borderopacity="1"
     inkscape:showpageshadow="0"
     inkscape:pageopacity="0"
     inkscape:pagecheckerboard="0"
     inkscape:deskcolor="#505050"
     showgrid="false"
     inkscape:zoom="0.39637681"
     inkscape:cx="1378.7386"
     inkscape:cy="753.0713"
     inkscape:window-width="1920"
     inkscape:window-height="1009"
     inkscape:window-x="1912"
     inkscape:window-y="-8"
     inkscape:window-maximized="1"
     inkscape:current-layer="g8" />
  <g
     inkscape:groupmode="layer"
     inkscape:label="Image"
     id="g1">
    <g
       id="g8"
       transform="translate(-17.659964,2.5228561)">
      <path
         style="fill:#6c46ae"
         d="m 1333.5235,1265.3204 c -9.3125,-5.848 -17.1082,-11.9689 -45.2498,-35.5285 -6.6012,-5.5264 -18.0772,-14.9535 -25.5022,-20.9492 -13.4022,-10.8222 -22.358,-18.2311 -39.3443,-32.5482 -4.8643,-4.1 -10.3638,-8.5796 -12.2211,-9.9546 -4.788,-3.5446 -34.5851,-28.1902 -42.9346,-35.5118 -3.85,-3.376 -10.375,-8.7849 -14.5,-12.0198 -4.125,-3.2349 -15.2918,-12.4261 -24.815,-20.425 -9.5233,-7.9988 -19.0232,-15.8934 -21.111,-17.5434 -2.0877,-1.65 -11.0956,-9.075 -20.0175,-16.5 -14.0567,-11.6983 -27.6784,-22.9351 -46.6709,-38.5 -12.2222,-10.0163 -34.9827,-29.10498 -35.8856,-30.09628 -1.0133,-1.1126 -19.01833,-15.8139 -24.98873,-20.4036 -18.8196,-14.4675 -37.9434,-31.4058 -40.8276,-36.1618 -0.8878,-1.464 -2.3176,-7.089 -3.1773,-12.5 -0.8598,-5.411 -1.9736,-12.0882 -2.4752,-14.8382 l -0.912,-5 0.047,-106.5 c 0.026,-58.575 0.3736,-140.25 0.7724,-181.49998 l 0.725,-75 2.1393,-5.82318 c 1.9695,-5.36063 5.0101,-11.31912 16.1648,-31.67682 4.9375,-9.01113 13.4823,-26.50346 26.134,-53.5 15.74502,-33.59707 22.80703,-45.08146 37.16913,-60.44476 l 6.0248,-6.44475 10.4686,10.94475 c 5.7578,6.01962 12.9794,13.52198 16.0482,16.67192 l 5.5795,5.72717 -1.7673,3.70607 c -0.972,2.03834 -5.1841,8.68612 -9.3602,14.77284 -11.7692,17.15372 -17.8319,31.01807 -25.6107,58.56676 -0.8541,3.025 -2.0981,11.22018 -2.7645,18.21151 l -1.2116,12.7115 1.2156,11.7885 c 2.0831,20.20127 6.5611,34.82843 15.9422,52.07407 7.6522,14.06747 11.5707,19.28447 25.1643,33.50274 l 8.5,8.89056 8,5.32 c 17.4662,11.6149 32.8806,17.8086 53.4249,21.4668 l 11.4249,2.0343 9.5751,-0.01 c 9.6281,-0.01 22.4412,-1.6605 33.5751,-4.3324 5.6649,-1.3594 21.9084,-7.2429 26.0833,-9.4476 1.0542,-0.5566 7.0917,-3.5121 13.4167,-6.5676 6.325,-3.0556 15.3236,-7.8508 19.997,-10.65596 4.6733,-2.8053 9.3968,-5.188 10.4967,-5.2949 l 1.9998,-0.1945 0.3299,2.304 0.3298,2.3039 -2.4652,4.71466 c -5.7495,10.9957 -10.0182,26.4376 -13.8649,50.1562 l -1.0507,6.4787 0.504,19.0213 0.504,19.0212 1.6199,8.6146 c 2.4287,12.9153 6.7313,25.2897 13.9382,40.0868 l 6.4772,13.2986 7.6134,9.4735 c 10.1177,12.5894 22.0901,24.6861 29.2486,29.5525 9.693,6.5894 30.6045,21.3494 34.1865,24.13 l 3.3641,2.6115 2.314,5.2323 c 1.2727,2.8778 2.7832,8.6059 3.3567,12.7291 l 1.0427,7.4968 0.2074,107.8872 c 0.1141,59.33788 0.5467,129.03708 0.9614,154.88708 l 0.754,47 1.5658,14.5 c 1.762,16.318 2.0352,34.9364 0.6317,43.0664 -0.5158,2.9885 -1.235,8.2461 -1.5981,11.6836 l -0.6603,6.25 -1.6518,-0.019 c -0.9085,-0.01 -3.7884,-1.3607 -6.3998,-3.0005 z m -44.752,-96.4805 c 0,-1.375 0.4327,-2.5 0.9615,-2.5 0.5288,0 1.4832,-1.9125 2.1208,-4.25 l 1.1594,-4.25 -0.7371,-128 c -0.4054,-70.39988 -0.8023,-131.74178 -0.8818,-136.31528 l -0.1447,-8.3154 -2.489,-1.9664 c -1.369,-1.0815 -3.8391,-2.687 -5.4891,-3.5677 -11.4374,-6.105 -27.7987,-19.9222 -40.0651,-33.8351 -18.6956,-21.2051 -24.6657,-30.1865 -34.2432,-51.5149 -8.5226,-18.979 -16.9097,-53.3195 -18.6804,-76.4851 -0.3363,-4.4 -0.8375,-9.0724 -1.1138,-10.3831 l -0.5024,-2.3831 -5.1975,0.6546 c -2.8587,0.3601 -11.0476,1.3684 -18.1976,2.2408 l -13,1.5861 -13,-0.5981 c -7.15,-0.3289 -16.6,-1.2542 -21,-2.0561 -9.0854,-1.6559 -26.6056,-6.0519 -30.8056,-7.7293 l -2.8057,-1.1206 -1.132,1.1321 -1.132,1.132 2.9376,3.8926 c 3.3004,4.3732 11.4029,14.1164 17.9894,21.6321 2.41,2.75 8.0509,9.5 12.5353,15 4.4844,5.5 10.9281,12.925 14.3192,16.5 3.3912,3.575 11.7444,13.25 18.5627,21.5 6.8183,8.25 14.9021,17.7051 17.964,21.0114 5.3843,5.814 19.2557,22.221 37.2577,44.0682 4.7798,5.8007 11.698,13.8806 15.3737,17.9553 3.6756,4.0746 9.7301,11.2061 13.4542,15.8478 l 6.7712,8.4394 2.2524,5.8389 2.2523,5.839 0.8343,36.5 0.8343,36.5 3.2685,2.5 c 6.4461,4.9304 15.318,14.5924 18.0021,19.6051 1.5035,2.8079 3.4732,7.98288 4.3771,11.49998 l 1.6435,6.3948 -0.6291,8.931 -0.629,8.931 -4.0331,8.3324 -4.0331,8.3324 -5.4294,5.3433 -5.4293,5.3433 -6.5668,3.1368 c -3.6118,1.7252 -8.5741,3.6422 -11.0274,4.2599 l -4.4605,1.1232 -9.7582,-0.4013 -9.7583,-0.4014 -8.1686,-4.3645 -8.1686,-4.3645 -5.1277,-6.1008 c -8.9818,-10.6863 -13.0351,-21.6105 -13.0351,-35.1319 v -6.2582 l 1.9641,-6.3553 c 3.3392,-10.80448 10.6227,-20.61048 19.5508,-26.32168 l 5.1654,-3.3043 0.6599,-12.2717 c 0.8247,-15.3379 0.8385,-41.2438 0.024,-46.167 l -0.6132,-3.7095 -8.5093,-10.1579 c -4.6801,-5.5869 -12.1617,-14.6059 -16.6257,-20.0422 -4.4641,-5.4363 -15.3165,-18.1298 -24.1165,-28.2078 -8.8,-10.078 -19.375,-22.3308 -23.5,-27.2284 -4.125,-4.8977 -11.775,-13.6388 -17,-19.4248 -12.4137,-13.7465 -19.8018,-22.3613 -24.4592,-28.52 -2.0796,-2.75 -7.9453,-9.5 -13.035,-15 -5.0896,-5.5 -13.9037,-15.625 -19.587,-22.5 -10.8349,-13.107 -20.0063,-23.7819 -30.5002,-35.5 -3.4478,-3.85 -9.7156,-11.275 -13.9285,-16.5 -4.2129,-5.225 -11.1091,-13.2731 -15.32501,-17.8846 -4.2158,-4.6115 -8.56512,-9.6785 -9.66512,-11.2599 l -2,-2.8754 -2,0.2599 -2,0.26 0.1822,45.3808 0.1823,45.3808 2.3177,4.3092 c 1.2748,2.37 7.71782,10.2645 14.31782,17.5433 6.60001,7.2788 14.25001,15.7716 17.00001,18.8729 14.0211,15.8122 20.4627,23.0056 25.0816,28.0087 11.8464,12.8318 17.3056,18.8772 22.5796,25.0043 9.4042,10.9254 16.2307,17.7162 18.5154,18.4188 l 2.1766,0.6694 3.6955,-1.5441 3.6956,-1.5441 h 6.9739 6.974 l 5.6539,1.6261 c 11.3679,3.2694 20.2555,9.7101 26.4571,19.1729 4.9394,7.5369 5.3692,8.4949 7.2694,16.201 6.1505,24.9434 -7.3426,49.9202 -31.2911,57.9222 l -6.2184,2.0778 -8.2816,-0.012 c -14.9144,-0.021 -25.0812,-4.2777 -34.6488,-14.5055 -6.1859,-6.6127 -10.0897,-13.8249 -12.1271,-22.4044 l -1.2875,-5.4218 0.5742,-10.1399 0.5743,-10.14 -16.1833,-18.0262 c -55.56163,-61.8886 -50.82913,-56.8921 -53.07133,-56.0317 l -1.4135,0.5424 0.2093,47.3195 0.2093,47.3194 1.1289,2.6507 1.129,2.6506 12.31252,9.7925 c 6.77191,5.3858 15.91251,12.9725 20.31251,16.8593 6.7935,6.0011 31.5441,26.4908 57.4346,47.5469 3.7195,3.025 10.3183,8.6606 14.6641,12.52348 4.3457,3.8629 10.1513,8.7976 12.9013,10.9661 2.75,2.1684 5.225,4.1912 5.5,4.495 0.275,0.3038 3.425,2.9166 7,5.8063 10.8661,8.7832 20.0351,16.4168 26.9355,22.4247 3.6105,3.1436 17.5895,14.6083 31.0645,25.477 30.401,24.5211 37.4708,30.3134 65.8914,53.9853 5.1652,4.3022 10.9792,9.0569 12.92,10.5661 1.9408,1.5092 4.2787,3.5342 5.1953,4.5 0.9166,0.9658 5.3881,4.681 9.9366,8.256 4.5485,3.575 11.147,8.8907 14.6634,11.8127 l 6.3933,5.3126 v 2.4374 c 0,1.3405 0.45,2.4373 1,2.4373 0.55,0 1,-1.125 1,-2.5 z m -56.5,-136.39 c 7.2043,-3.325 10.5,-8.5714 10.5,-16.7149 v -4.4747 l -1.9561,-3.8344 c -2.2503,-4.4108 -7.0807,-8.80608 -10.6672,-9.70618 -1.358,-0.3409 -4.8908,-0.4189 -7.8507,-0.1735 l -5.3817,0.4463 -3.4314,2.61728 c -3.8877,2.9653 -6.6969,8.1922 -7.4598,13.88 l -0.5186,3.8664 1.6855,4.4134 1.6855,4.4134 3.3997,2.5931 c 1.8699,1.4262 4.4336,3.008 5.6973,3.5151 3.7448,1.5027 10.0185,1.1336 14.2975,-0.8413 z m -123.7116,-112.82598 4.1887,-2.716 1.6896,-3.534 c 0.9293,-1.9436 1.8836,-5.8179 2.1208,-8.6094 l 0.4312,-5.0755 -2.0814,-4.08 c -4.9965,-9.7939 -17.1862,-13.1884 -26.1826,-7.2911 -4.5655,2.9927 -6.6635,5.9047 -8.0859,11.2229 l -1.1706,4.3768 0.6752,3.5994 c 0.8736,4.6564 4.2996,9.686 8.5483,12.5492 l 3.3741,2.2738 h 6.1519 6.152 z m 298.4036,342.96598 c -0.6715,-3.1625 -2.2129,-20.15 -3.4253,-37.75 l -2.2044,-32 -0.031,-157 -0.031,-156.99988 2.413,-7.367 c 3.6629,-11.1828 3.3015,-10.8621 30.587,-27.1416 15.3079,-9.1333 25.5684,-16.9119 36.773,-27.8779 l 10.773,-10.5436 5.3382,-8.035 c 12.7383,-19.1736 20.4962,-37.7993 25.2139,-60.5349 l 1.7638,-8.5 0.026,-22.5 0.026,-22.5 -3.6266,-15.081 c -1.9946,-8.2946 -5.7152,-20.3618 -8.2679,-26.8161 -2.5528,-6.4543 -4.5015,-12.71776 -4.3305,-13.91896 l 0.3109,-2.1839 2.5,0.3188 c 1.375,0.1754 6.8977,2.9879 12.2726,6.24996 5.3749,3.2622 9.9451,5.9312 10.156,5.9312 0.2109,0 5.9382,2.6555 12.7274,5.9011 13.6657,6.5329 28.1369,12.119 37.4273,14.4474 3.3458,0.8386 11.7999,2.079 18.7869,2.7564 l 12.7036,1.2318 11.2131,-1.2363 c 18.396,-2.0282 40.2683,-8.59 52.7056,-15.812 14.5917,-8.4729 28.0707,-19.84056 37.3183,-31.47294 11.4405,-14.39072 22.7577,-37.7115 27.1963,-56.04199 l 2.4877,-10.27345 0.6017,-10.5 0.6017,-10.5 -1.0689,-11.5 -1.0688,-11.5 -3.0331,-11.86787 c -5.3616,-20.97892 -13.7361,-39.20102 -27.3728,-59.56037 -4.21,-6.28554 -7.6546,-11.79327 -7.6546,-12.23942 0,-0.44614 2.1631,-3.17843 4.8069,-6.07176 5.9848,-6.54965 27.1935,-27.76058 27.7576,-27.76058 0.8264,0 14.8707,15.18635 16.4712,17.81055 0.9021,1.4792 2.3881,3.30705 3.3022,4.06189 0.9142,0.75485 1.6635,1.87985 1.6653,2.5 0,0.62016 1.8003,3.82756 3.9968,7.12756 2.1965,3.3 3.9951,6.41456 3.9968,6.92126 0,0.50669 0.6518,1.63799 1.4446,2.514 1.3846,1.52991 14.5586,27.39006 14.5586,28.57797 0,1.13784 24.0844,48.86822 30.9343,61.30541 3.8413,6.97475 7.7212,14.70636 8.6219,17.18136 l 1.6377,4.5 0.3542,73.5 c 0.1948,40.42498 0.6268,123.44998 0.96,184.49998 l 0.6058,111 -1.5769,11.9538 -1.577,11.9538 -2.3716,5.0462 c -2.6724,5.6863 -7.3244,10.6847 -17.8625,19.1922 -3.9742,3.2085 -12.4001,10.1132 -18.7242,15.3438 -11.7047,9.681 -17.8495,14.7542 -25.4477,21.0101 -2.338,1.925 -10.2208,8.44998 -17.5173,14.49998 -17.4071,14.4335 -25.0994,20.7328 -34.111,27.9339 -4.0841,3.2637 -10.8007,8.9163 -14.9257,12.5615 -4.125,3.6452 -12.197,10.425 -17.9378,15.0661 -5.7408,4.6412 -15.4158,12.4576 -21.5,17.3698 -6.0842,4.9123 -15.1122,12.3635 -20.0622,16.5583 -4.95,4.1948 -13.725,11.414 -19.5,16.0427 -5.775,4.6286 -16.3839,13.3774 -23.5754,19.4417 -7.1914,6.0643 -17.5192,14.626 -22.9506,19.026 -5.4313,4.4 -21.9967,18.125 -36.8118,30.5 -26.2963,21.9653 -43.9776,36.4367 -79.7809,65.2977 -17.1639,13.8358 -28.7276,21.7023 -31.9021,21.7023 h -1.5663 z m 45.4231,-86.4706 c 1.5867,-1.2213 6.9349,-5.6212 11.8849,-9.7776 4.95,-4.1563 12.375,-10.0529 16.5,-13.1036 4.125,-3.0507 8.85,-6.8665 10.5,-8.4795 1.65,-1.613 5.475,-4.9514 8.5,-7.4186 3.025,-2.4673 8.65,-7.1989 12.5,-10.5146 7.5351,-6.4895 17.8676,-14.9838 27.9598,-22.9855 7.9241,-6.2827 42.0849,-34.4386 54.0402,-44.5409 15.3181,-12.9438 39.3541,-32.8042 58.0421,-47.9591 9.8344,-7.975 23.1299,-18.99998 29.5458,-24.49998 6.4158,-5.4999 15.5464,-13.1499 20.2902,-16.9999 11.3049,-9.1749 29.9513,-24.5358 35.6219,-29.3454 2.475,-2.0992 9.9,-8.2182 16.5,-13.5978 l 12,-9.7811 2,-3.6379 2,-3.6378 v -47.4857 -47.4856 l -1.6287,-0.3143 -1.6288,-0.3144 -14.2292,16.3 c -7.8261,8.965 -17.0181,19.225 -20.4267,22.8 -3.4086,3.575 -12.0225,13.1973 -19.142,21.3829 l -12.9446,14.883 0.3634,10.2712 0.3634,10.2713 -2.2348,6.8458 c -3.1419,9.6244 -7.1047,16.2173 -13.2211,21.9959 -6.3715,6.0197 -12.4442,9.6457 -19.7024,11.7644 l -5.4315,1.5855 h -7.4242 c -24.7547,0 -44.3367,-16.6995 -48.3946,-41.2708 l -1.145,-6.9334 1.1487,-7.3888 1.1487,-7.3888 3.2647,-6.7591 3.2647,-6.7591 7,-7.0454 7,-7.0453 7,-2.8168 7,-2.8169 8.1137,-0.5202 8.1136,-0.5203 5.2416,1.2574 c 2.8829,0.6916 6.38,1.2575 7.7713,1.2575 h 2.5297 l 5.9276,-6.375 c 3.2602,-3.5063 7.5536,-8.4 9.5408,-10.875 1.9872,-2.475 4.3215,-5.1802 5.1874,-6.0115 0.8659,-0.8314 8.3194,-8.9314 16.5634,-18 8.2439,-9.0687 15.5734,-17.1002 16.2877,-17.8477 0.7143,-0.7475 5.8769,-6.5975 11.4725,-13 5.5956,-6.4025 14.5036,-16.3658 19.7956,-22.1408 5.2919,-5.775 10.4842,-11.8331 11.5384,-13.4623 l 1.9167,-2.9623 -0.053,-46.791 -0.053,-46.791 -1.1194,-1.1194 -1.1195,-1.1195 -2.3272,2.4466 c -4.0296,4.2363 -12.9045,14.5662 -18.0884,21.0541 -2.7443,3.4346 -7.759,9.3948 -11.1437,13.2448 -3.3848,3.85 -8.1658,9.4694 -10.6246,12.4877 -2.4588,3.0182 -8.2956,9.812 -12.9706,15.0972 -9.7097,10.977 -12.1651,13.8495 -20.5,23.9823 -3.3,4.0119 -10.071,11.8255 -15.0468,17.3635 -4.9757,5.5381 -13.3561,15.2443 -18.6231,21.5693 -5.2669,6.325 -12.7834,15.1 -16.7033,19.5 -3.92,4.4 -12.6357,14.525 -19.3684,22.5 -6.7327,7.975 -18.9951,22.3818 -27.2498,32.0151 -8.2547,9.6333 -17.2586,20.1854 -20.0086,23.449 -2.75,3.2636 -6.4047,7.5318 -8.1217,9.4849 -1.7169,1.953 -7.2232,8.501 -12.2362,14.551 l -9.1146,11 -0.014,29.7183 -0.014,29.7183 4.7068,3.2817 c 2.5887,1.8049 7.0944,5.6911 10.0126,8.636 l 5.3058,5.3543 3.7374,7.6456 3.7374,7.64568 v 13 13 l -3.8978,7.9793 -3.8979,7.9792 -5.3939,5.6549 -5.3939,5.655 -7.575,3.8449 -7.575,3.8449 -10.2537,0.3795 -10.2537,0.3796 -5.8795,-1.6953 c -8.5284,-2.4591 -15.6315,-6.8621 -21.2627,-13.1802 -8.7149,-9.7778 -13.1169,-21.3134 -13.1169,-34.3729 v -5.7582 l 2.0958,-6.8553 c 3.7448,-12.24898 9.4121,-19.82878 21.8186,-29.18138 l 3.0856,-2.326 0.022,-37.674 0.022,-37.6739 2.0072,-4.4243 c 2.3586,-5.1989 7.4176,-11.5915 30.5282,-38.5757 17.8339,-20.8231 25.0847,-29.3775 53.7392,-63.4008 9.4498,-11.2204 19.8815,-23.5142 23.1815,-27.3195 3.3,-3.8054 8.025,-9.3142 10.5,-12.2418 4.8825,-5.7755 23.5288,-27.4374 31.3705,-36.444 6.1305,-7.0412 10.1119,-12.9448 9.2866,-13.7701 -0.6354,-0.6354 -7.5439,0.8347 -21.6571,4.6085 -4.125,1.1031 -13.8,2.7457 -21.5,3.6503 l -14,1.6448 -12.9955,-0.5928 c -7.1476,-0.3261 -17.8642,-1.3691 -23.8148,-2.3179 l -10.8193,-1.7251 -0.7867,1.273 c -0.4327,0.7001 -1.0821,6.4436 -1.443,12.7633 -1.7184,30.0874 -9.651,59.8842 -22.8611,85.8721 -5.9718,11.7482 -20.9863,32.6212 -31.2118,43.3903 -8.6464,9.1061 -27.4738,24.5931 -38.4303,31.6119 -5.1493,3.2988 -11.128,7.5728 -13.2859,9.4978 l -3.9236,3.5 -1.4521,5.5 -1.4522,5.5 -0.012,136.58328 c -0.01,75.1208 0.2881,136.8833 0.6548,137.25 1.0638,1.0638 1.8811,0.8071 4.9484,-1.554 z m 82.328,-143.7503 c 2.1249,-1.0841 5.257,-3.6616 6.9602,-5.7279 l 3.0967,-3.7568 v -6.312 -6.312 l -1.9983,-3.917 -1.9983,-3.9171 -4.5348,-2.65748 -4.5347,-2.6575 -6.2595,0.3985 -6.2595,0.3986 -3.2301,2.29998 c -3.7341,2.659 -6.8597,8.2464 -7.759,13.8704 l -0.6272,3.9223 2.2033,5.1217 2.2033,5.1217 2.6474,1.7978 c 4.5508,3.0903 7.5014,4.1325 11.9372,4.2165 l 4.2899,0.081 z m 126.8276,-112.03058 c 1.7989,-1.0968 4.6114,-4.1082 6.25,-6.6921 l 2.9793,-4.6979 v -4.2572 c 0,-7.3641 -4.006,-14.2933 -10.0444,-17.3739 l -3.8759,-1.9773 h -4.4177 c -8.3921,0 -15.2717,4.5986 -17.7459,11.862 l -1.1452,3.3621 0.4425,5.3359 0.4425,5.336 2.9112,4.2008 c 3.5825,5.1695 7.163,6.8144 14.9329,6.8603 l 6,0.035 z m -528.2707,-304.38857 -8,-1.30189 -9.5,-3.78305 c -5.225,-2.08067 -11.525,-4.92751 -14,-6.3263 -7.78,-4.39699 -19.4945,-14.42467 -25.3477,-21.69763 l -5.6342,-7.00094 -4.9054,-10 c -2.6979,-5.5 -5.684,-12.925 -6.6358,-16.5 l -1.7304,-6.5 -0.4776,-14.56105 -0.4777,-14.56105 1.6973,-8.32161 c 0.9335,-4.57689 3.663,-13.21269 6.0655,-19.19068 l 4.3682,-10.86906 4.6972,-6.74828 c 5.0474,-7.2514 15.1999,-19.24827 16.2891,-19.24827 0.3654,0 7.1729,6.59068 15.1279,14.64596 7.955,8.05527 15.4761,15.64437 16.7136,16.86467 1.2375,1.22029 2.25,3.17909 2.25,4.35289 v 2.13419 l -4.1526,4.25114 c -5.287,5.41247 -9.6582,14.68455 -11.0069,23.34756 l -1.0549,6.77576 1.2188,7.56392 1.2188,7.56391 2.5237,5 2.5236,5 6.6226,6.51854 6.6226,6.51855 5.9921,2.34091 5.9922,2.34092 6.6209,0.51567 6.621,0.51567 6.879,-1.19232 c 9.018,-1.56304 18.0765,-6.10838 24.5575,-12.32229 l 5.2316,-5.01594 2.1975,1.39015 c 3.1219,1.97494 18.5427,15.28031 26.0465,22.47347 l 6.346,6.08333 v 2.27325 2.27325 l -7.25,7.51375 c -3.9875,4.13257 -9.05,8.68746 -11.25,10.12198 -15.4737,10.0897 -35.7445,16.44827 -56,17.56613 l -9,0.49669 z m 449.5,-1.10976 c -9.8057,-2.17572 -23.4664,-7.29917 -31.3046,-11.74077 -8.3738,-4.74514 -18.9316,-13.49623 -23.5284,-19.50211 l -3.3331,-4.35472 1.4615,-2.23053 c 0.8038,-1.22678 7.0081,-6.94233 13.7872,-12.70122 6.7792,-5.75889 14.0475,-12.15438 16.1518,-14.21221 l 3.8261,-3.7415 5.2552,5.2415 5.2552,5.24151 5.4645,2.6581 c 3.0055,1.46196 8.3896,3.42363 11.9646,4.35927 l 6.5,1.70116 8,-0.48435 8,-0.48434 6.7816,-3.07655 6.7817,-3.07654 5.8435,-5.84357 c 6.32,-6.31994 9.6373,-11.90441 11.7338,-19.75318 2.5104,-9.39781 1.2688,-21.97882 -2.9794,-30.18993 -0.9078,-1.75446 -3.9269,-6.19753 -6.7092,-9.87347 l -5.0587,-6.68354 0.3033,-1.8618 c 0.1669,-1.02398 7.6933,-9.31272 16.7255,-18.41942 l 16.4221,-16.55763 4.9314,4.79289 c 15.1983,14.7716 24.7764,33.96608 28.3399,56.7929 l 1.5611,10 -0.6349,8.18146 c -0.3492,4.49981 -1.7547,12.80596 -3.1233,18.45812 l -2.4883,10.27665 -4.3494,9.18157 c -5.533,11.6803 -10.9993,18.89352 -20.5115,27.06634 -11.4907,9.87275 -22.3464,15.62087 -37.6826,19.95291 l -5.8866,1.66282 -15.5,0.33121 -15.5,0.33121 z m -283.7314,-12.59233 c -1.2272,-0.45622 -41.5022,-40.3033 -89.5,-88.54907 -47.9977,-48.24577 -89.5186,-89.92198 -92.2686,-92.61381 -14.1402,-13.84105 -26.2953,-25.97007 -101.1727,-100.95526 l -81.17283,-81.28958 -1.0351,-4 -1.0351,-4 -0.5723,-30.67234 -0.5723,-30.67233 0.8489,-0.5247 c 0.467,-0.28859 31.4181,30.07792 68.78023,67.48114 37.3622,37.40321 71.7028,71.69188 76.3125,76.19703 4.6097,4.50516 24.6347,24.56244 44.5,44.57174 19.8653,20.0093 45.3437,45.51328 56.6187,56.67551 11.275,11.16224 27.25,27.11501 35.5,35.45062 8.25,8.33561 18.5976,18.60662 22.9946,22.82449 4.3971,4.21786 11.0911,10.81884 14.8758,14.66884 3.7846,3.85 23.433,23.66906 43.663,44.04236 l 36.7818,37.04237 0.6888,4.59326 0.6888,4.59327 -1.2219,2.36437 c -3.6699,7.10138 -7.8782,10.66701 -22.4709,19.03921 -7.7676,4.45646 -8.5687,4.7227 -11.2314,3.73288 z m 147.1814,-0.76293 c -0.5225,-0.47036 -5,-2.96132 -9.95,-5.53545 l -9,-4.68024 -4.7379,-5.14146 -4.7378,-5.14146 -0.6416,-3.41955 -0.6415,-3.41955 1.2279,-4.15354 1.2278,-4.15354 57.1516,-57.0801 c 53.2328,-53.16625 80.6561,-79.17913 93.4215,-88.61648 2.8985,-2.14284 7.1815,-5.78773 9.5178,-8.09975 2.3363,-2.31202 6.0387,-5.54902 8.2275,-7.19333 2.1888,-1.64431 9.9069,-8.84431 17.1513,-16 16.0324,-15.83601 30.1551,-29.35897 41.7849,-40.01034 4.8041,-4.4 11.9756,-11.15 15.9365,-15 7.7829,-7.56495 25.0251,-23.46677 30.4923,-28.12181 6.8275,-5.81323 51.9687,-49.77603 103.3256,-100.62819 19.8576,-19.6625 36.4849,-35.75 36.9494,-35.75 h 0.8447 l -0.06,18.25 c -0.033,10.0375 -0.4181,24.78467 -0.8562,32.77149 l -0.7964,14.5215 -1.5993,3.09273 c -0.8796,1.701 -4.3654,5.83316 -7.7461,9.18256 l -6.1468,6.08984 -4.2843,0.64248 -4.2844,0.64248 -13.8634,14.26831 c -7.6249,7.84757 -15.2284,15.79162 -16.8968,17.65346 -1.6684,1.86183 -6.6184,6.60055 -11,10.53049 -4.3816,3.92995 -9.9916,8.96243 -12.4666,11.1833 -3.6963,3.31678 -12.0342,11.5039 -25.3095,24.85193 -4.8609,4.88747 -23.0541,21.8462 -34.1356,31.81943 -4.2779,3.85 -13.4653,12.47447 -20.4164,19.16549 -6.9512,6.69103 -17.5768,16.81603 -23.6126,22.5 -10.9858,10.34555 -29.5413,28.10761 -45.5168,43.57061 -4.68,4.52985 -40.895,40.64235 -80.4778,80.25 l -71.9687,72.0139 h -2.5813 c -1.4197,0 -3.0088,-0.38485 -3.5313,-0.85521 z m -146.6642,-120.01154 -6.7141,-1.75146 -5.5923,-3.85151 c -14.8296,-10.21358 -21.3669,-24.19717 -21.4443,-45.87051 l -0.035,-9.84023 -3.1694,-2.65977 c -1.7431,-1.46288 -4.5556,-4.0522 -6.25,-5.75405 -1.6943,-1.70186 -8.9306,-8.41931 -16.0806,-14.92768 -7.15,-6.50837 -18.6275,-17.26594 -25.5056,-23.90572 -6.8781,-6.63978 -18.5781,-17.75083 -26,-24.69123 -7.4219,-6.9404 -15.8977,-14.91475 -18.835,-17.72076 -2.9373,-2.80602 -7.6703,-6.24171 -10.5178,-7.63485 -6.58,-3.21931 -18.5709,-5.52548 -28.7296,-5.52548 h -7.912 l -2.0382,-2.03816 -2.0381,-2.03815 0.66,-3.71185 c 1.0853,-6.10387 9.2786,-18.07326 22.94,-33.51266 l 8.0238,-9.06798 2.9762,-1.00451 2.9763,-1.00452 215,-0.0611 215,-0.0611 8.4543,1.33459 8.4543,1.33458 4.1272,2.96394 c 2.27,1.63017 5.8548,5.30461 7.9662,8.16542 4.0566,5.49632 9.3366,10.62955 10.9799,10.67457 0.5401,0.0148 3.3027,2.3894 6.1392,5.2769 2.8365,2.8875 7.2321,7.08455 9.7681,9.32678 l 4.6108,4.07678 v 2.97322 c 0,1.63527 -0.54,3.51322 -1.2,4.17322 l -1.2,1.2 -9.55,0.007 -9.55,0.007 -8.214,1.96927 c -4.5177,1.0831 -10.9186,3.25743 -14.2241,4.83184 l -6.01,2.86256 -9.723,8.91116 c -5.3476,4.90114 -12.035,11.16116 -14.8608,13.91116 -9.3593,9.10834 -24.6002,22.98536 -26.2849,23.93271 -0.9122,0.51299 -3.1927,2.42259 -5.0677,4.24356 -1.8749,1.82096 -6.1152,5.22624 -9.4228,7.56728 -3.3076,2.34105 -8.1257,6.16895 -10.707,8.50645 -2.5812,2.3375 -5.3642,4.25 -6.1844,4.25 -0.8202,0 -2.3058,0.9 -3.3013,2 -0.9955,1.1 -2.6109,2 -3.5898,2 -0.9788,0 -5.1248,3.2625 -9.2132,7.25 -4.0884,3.9875 -8.8991,8.49638 -10.6905,10.01975 l -3.2572,2.76974 0.5342,5.23026 c 0.7262,7.11149 -0.9137,19.65653 -3.4706,26.54914 -3.8401,10.35141 -12.7109,20.77798 -21.3476,25.09135 -13.608,6.79616 -31.3614,6.79899 -45.2449,0.007 l -6.2797,-3.07197 -4.8716,-4.87162 c -6.6704,-6.67044 -11.0564,-14.97977 -13.0639,-24.74993 l -1.2895,-6.27606 0.6131,-6.56611 0.6132,-6.56612 2.6274,-5.55397 c 2.5728,-5.43835 11.6423,-17.0421 16.032,-20.51169 1.2177,-0.9625 2.8699,-1.75 3.6715,-1.75 0.8016,0 2.6225,-0.91652 4.0466,-2.0367 3.1131,-2.44874 14.3467,-6.64336 20.0613,-7.49091 3.6333,-0.53886 15.5022,0.56145 22.6192,2.09693 l 2.5,0.53937 3,-2.51791 c 15.3523,-12.88523 20.1427,-16.98699 21,-17.98089 0.55,-0.63767 4.4761,-3.98036 8.7247,-7.42819 4.2486,-3.44784 8.0736,-6.81436 8.5,-7.48116 0.4264,-0.6668 2.3503,-2.39505 4.2753,-3.84055 1.925,-1.4455 6.6918,-5.71784 10.593,-9.49409 3.9011,-3.77624 9.6915,-9.1159 12.8676,-11.8659 3.176,-2.75 7.5923,-6.61617 9.814,-8.59148 l 4.0394,-3.59148 -0.716,-1.15852 -0.716,-1.15852 h -161.441 -161.441 v 1.24565 c 0,0.68511 3.8037,4.84761 8.4526,9.25 9.3325,8.83764 40.541,38.74217 55.7147,53.38692 l 9.7215,9.38257 5.3056,-0.80603 c 2.9181,-0.44332 9.3556,-0.7956 14.3056,-0.78285 l 9,0.0232 5.5,2.37103 c 6.7688,2.91801 16.8491,9.85007 20.6576,14.2059 1.5633,1.78805 3.9279,5.49484 5.2547,8.23731 1.3267,2.74248 3.1138,6.33632 3.9713,7.98632 l 1.559,3 0.3785,10 0.3784,10 -2.1639,6.5 c -3.9211,11.77842 -12.6103,22.48412 -22.0916,27.21834 -11.7128,5.8485 -24.5578,7.20183 -37.1582,3.91491 z m 22.7142,-29.90661 5,-2.72664 2.25,-4.46189 2.25,-4.46189 v -3.63889 c 0,-7.86771 -3.9706,-14.86136 -10.2587,-18.06933 l -4.0903,-2.08672 -5.0755,0.42726 -5.0755,0.42726 -3.7084,2.4321 -3.7085,2.4321 -2.5415,5.01435 -2.5416,5.01435 v 3.76777 c 0,5.22229 2.1218,9.78595 6.114,13.15051 4.3977,3.70623 8.5393,5.47092 12.886,5.49052 l 3.5,0.0158 z m 124.3885,-0.16974 4.0252,-2.05353 2.5432,-4.33954 2.5431,-4.33955 v -5.2118 -5.2118 l -1.4176,-2.70034 c -0.7796,-1.48519 -3.1437,-4.37088 -5.2535,-6.41264 l -3.836,-3.7123 -5.4964,-0.60578 -5.4965,-0.60579 -4.4931,2.31808 -4.4931,2.31809 -3.0041,4.5 -3.0041,4.5 0.069,6.15316 0.069,6.15317 1.8035,2.84683 c 2.2034,3.47821 5.0876,6.00434 9.0534,7.92948 l 3,1.45632 4.6816,-0.46427 c 2.5749,-0.25534 6.493,-1.38835 8.7069,-2.51779 z"
         id="path8" />
    </g>
  </g>
</svg>
